<svg width="19" height="19" viewBox="0 0 19 19" fill="none" xmlns="http://www.w3.org/2000/svg">
<path d="M5.27267 3.83333C6.03593 3.86498 6.7922 3.9923 7.52375 4.21229C7.82906 4.29457 8.13701 4.36665 8.44707 4.42842L5.27267 3.83333ZM5.27267 3.83333C2.63625 3.83333 1 6.00438 1 9.5C1 14.8196 3.8815 17.9993 6.66667 18M5.27267 3.83333L6.66667 18M6.66667 18H6.66808M6.66667 18H6.66808M6.66808 18C7.27633 17.9678 7.87379 17.8262 8.43183 17.5821L6.66808 18ZM13.5935 3.63333V3.63319L13.5859 3.63347C12.8335 3.66178 12.0883 3.79193 11.3708 4.02037C11.0176 4.12458 10.6589 4.20942 10.2965 4.27451C10.0824 3.3243 9.56205 2.46844 8.81277 1.8404C8.01273 1.16981 7.00255 0.801576 5.95863 0.8L5.75833 0.799698V1V2.41667V2.61599L5.95766 2.61667C6.52777 2.61859 7.0818 2.80584 7.5362 3.15017C7.90037 3.42613 8.18472 3.791 8.36362 4.2073C8.10021 4.15238 7.83842 4.08989 7.57855 4.01993C6.83184 3.79563 6.05996 3.66581 5.28095 3.63351L5.28096 3.63333H5.27267C3.8931 3.63333 2.76523 4.20444 1.98798 5.23541C1.21537 6.2602 0.8 7.72386 0.8 9.5C0.8 14.8679 3.7178 18.1993 6.66662 18.2H6.66667H6.66808V18.2003L6.67867 18.1997C7.31091 18.1662 7.93194 18.0191 8.51199 17.7653L8.51375 17.7645C8.82671 17.624 9.15935 17.5324 9.50004 17.4929C9.84143 17.5324 10.1748 17.624 10.4885 17.7646L10.4901 17.7653C11.0699 18.0191 11.6907 18.1663 12.3228 18.1997L12.3227 18.2L12.3334 18.2C15.2808 18.1993 18.2 14.868 18.2 9.5C18.2 8.16855 17.9067 6.71081 17.1848 5.57897C16.4568 4.43738 15.2945 3.63333 13.5935 3.63333ZM7.85563 16.0722C7.47668 16.242 7.07199 16.3471 6.65834 16.3833C5.70481 16.3788 4.70115 15.7706 3.92578 14.5939C3.1497 13.4161 2.61667 11.6857 2.61667 9.5C2.61667 8.86946 2.68627 7.8401 3.06152 6.97544C3.2482 6.54531 3.50657 6.1652 3.86085 5.89295C4.21138 5.62358 4.66698 5.45101 5.26738 5.45C5.89339 5.48383 6.51299 5.59341 7.11264 5.77634L7.1137 5.77666C7.83165 5.99137 8.57272 6.11941 9.3211 6.15807L9.32109 6.15833H9.33142H9.67921V6.15856L9.68874 6.15811C10.4268 6.1229 11.1572 5.99223 11.8617 5.76935L11.8628 5.76899C12.425 5.58745 13.0085 5.48021 13.5985 5.45C14.262 5.45103 14.7575 5.6566 15.1334 5.96822C15.5136 6.28352 15.7819 6.71642 15.9699 7.1835C16.3471 8.12118 16.3833 9.15271 16.3833 9.5C16.3833 11.6857 15.8503 13.4162 15.0744 14.5939C14.2988 15.7712 13.2949 16.3794 12.3417 16.3833C11.929 16.3472 11.5253 16.2421 11.1474 16.0722L11.1462 16.0717C10.6294 15.8434 10.076 15.7091 9.51195 15.6754L9.49996 15.6746L9.48797 15.6754C8.92488 15.7093 8.37237 15.8435 7.85649 16.0718L7.85563 16.0722ZM10.9167 3.325L10.9169 3.325C11.3454 3.32457 11.7564 3.15413 12.0594 2.85107C12.3625 2.54802 12.5329 2.13712 12.5333 1.70853V1.70833V1V0.8H12.3333L11.625 0.8L11.6248 0.8C11.1962 0.800428 10.7853 0.970871 10.4823 1.27393C10.1792 1.57698 10.0088 1.98788 10.0083 2.41647V2.41667V3.125V3.325H10.2083H10.9167Z" fill="#514E80" stroke="#514E80" stroke-width="0.4"/>
</svg>
