<svg width="18" height="20" viewBox="0 0 18 20" fill="none" xmlns="http://www.w3.org/2000/svg">
<path d="M1 1V0C0.715557 0 0.444573 0.121132 0.254872 0.333079C0.0651707 0.545025 -0.0252953 0.827728 0.00611627 1.11043L1 1ZM9 1L9.99388 1.11043C10.0253 0.827728 9.93483 0.545025 9.74513 0.333079C9.55543 0.121132 9.28444 0 9 0V1ZM8 10V11C8.50955 11 8.93761 10.6169 8.99388 10.1104L8 10ZM2 10L1.00612 10.1104C1.06239 10.6169 1.49045 11 2 11V10ZM4 16V15C3.44772 15 3 15.4477 3 16H4ZM6 16H7C7 15.4477 6.55228 15 6 15V16ZM6 19V20C6.55228 20 7 19.5523 7 19H6ZM4 19H3C3 19.5523 3.44772 20 4 20V19ZM17 1H18C18 0.599827 17.7614 0.238187 17.3936 0.0806979C17.0257 -0.0767913 16.5993 0.000200033 16.3098 0.276413L17 1ZM12 13L11 13.0062C11.0035 13.5561 11.4502 14 12 14V13ZM17 19V20C17.5523 20 18 19.5523 18 19H17ZM16 19H15C15 19.5523 15.4477 20 16 20V19ZM17 16C17 15.4477 16.5523 15 16 15C15.4477 15 15 15.4477 15 16H17ZM6 10C6 9.44771 5.55228 9 5 9C4.44772 9 4 9.44771 4 10H6ZM4 16C4 16.5523 4.44772 17 5 17C5.55228 17 6 16.5523 6 16H4ZM1 2H9V0H1V2ZM8.00612 0.889568L7.00612 9.88957L8.99388 10.1104L9.99388 1.11043L8.00612 0.889568ZM8 9H2V11H8V9ZM2.99388 9.88957L1.99388 0.889568L0.00611627 1.11043L1.00612 10.1104L2.99388 9.88957ZM4 17H6V15H4V17ZM5 16V19H7V16H5ZM6 18H4V20H6V18ZM5 19V16H3V19H5ZM16 1V13H18V1H16ZM17 12H12V14H17V12ZM13 12.9938C12.9886 11.167 13.0388 9.45634 13.6347 7.65672C14.2258 5.87169 15.3802 3.92716 17.6902 1.72359L16.3098 0.276413C13.8038 2.66684 12.4467 4.88181 11.7361 7.02803C11.0302 9.15966 10.9884 11.152 11 13.0062L13 12.9938ZM16 13V19H18V13H16ZM17 18H16V20H17V18ZM17 19V16H15V19H17ZM4 10V16H6V10H4Z" fill="#514E80"/>
</svg>
