<svg width="33" height="33" viewBox="0 0 33 33" fill="none" xmlns="http://www.w3.org/2000/svg">
<path d="M13.3789 1.08378e-08C15.8728 -0.000100349 18.3171 0.696811 20.436 2.01209C22.5549 3.32737 24.2639 5.20865 25.3703 7.44364C26.4767 9.67863 26.9364 12.1784 26.6975 14.6607C26.4586 17.1431 25.5307 19.5093 24.0184 21.4923L32.4796 29.9568C32.7996 30.2779 32.9853 30.7086 32.9992 31.1617C33.013 31.6147 32.8539 32.056 32.5541 32.3959C32.2543 32.7359 31.8364 32.949 31.3852 32.992C30.934 33.0349 30.4834 32.9046 30.1248 32.6273L29.9571 32.4793L21.4923 24.0183C19.8029 25.3064 17.831 26.1738 15.7399 26.5485C13.6487 26.9233 11.4983 26.7947 9.46671 26.1734C7.4351 25.5521 5.58064 24.456 4.0568 22.9757C2.53296 21.4954 1.38354 19.6735 0.703647 17.6608C0.0237564 15.6481 -0.167057 13.5025 0.146997 11.4014C0.461051 9.30031 1.27094 7.30421 2.50966 5.57827C3.74837 3.85233 5.38029 2.44617 7.27039 1.47614C9.16048 0.506117 11.2544 0.000112126 13.3789 1.08378e-08ZM13.3789 3.56778C10.7767 3.56778 8.28103 4.60148 6.44097 6.44147C4.60092 8.28146 3.56719 10.777 3.56719 13.3792C3.56719 15.9813 4.60092 18.4769 6.44097 20.3169C8.28103 22.1569 10.7767 23.1906 13.3789 23.1906C15.9811 23.1906 18.4768 22.1569 20.3168 20.3169C22.1569 18.4769 23.1906 15.9813 23.1906 13.3792C23.1906 10.777 22.1569 8.28146 20.3168 6.44147C18.4768 4.60148 15.9811 3.56778 13.3789 3.56778Z" fill="black"/>
</svg>
