<svg width="114" height="122" viewBox="0 0 114 122" fill="none" xmlns="http://www.w3.org/2000/svg">
<path d="M109.493 99.3297C106.635 92.5225 102.489 86.3394 97.2837 81.1246C92.0946 75.8948 85.9475 71.7251 79.1821 68.8457C79.1215 68.8152 79.0609 68.8 79.0003 68.7695C88.4374 61.9141 94.5723 50.7473 94.5723 38.1484C94.5723 17.2773 77.7582 0.367188 57.0057 0.367188C36.2532 0.367188 19.4391 17.2773 19.4391 38.1484C19.4391 50.7473 25.5739 61.9141 35.011 68.7848C34.9504 68.8152 34.8899 68.8305 34.8293 68.8609C28.043 71.7402 21.9536 75.8688 16.7276 81.1398C11.5275 86.3586 7.38149 92.5408 4.51848 99.3449C1.70587 106.006 0.188965 113.148 0.0498783 120.384C0.0458353 120.546 0.0741924 120.708 0.13328 120.859C0.192367 121.011 0.280988 121.149 0.393922 121.265C0.506855 121.382 0.641816 121.474 0.790851 121.537C0.939887 121.6 1.09998 121.633 1.2617 121.633H10.3504C11.0169 121.633 11.5471 121.1 11.5622 120.445C11.8652 108.684 16.561 97.6691 24.862 89.3207C33.4508 80.6828 44.8571 75.9297 57.0057 75.9297C69.1542 75.9297 80.5605 80.6828 89.1493 89.3207C97.4503 97.6691 102.146 108.684 102.449 120.445C102.464 121.115 102.994 121.633 103.661 121.633H112.75C112.911 121.633 113.071 121.6 113.22 121.537C113.37 121.474 113.504 121.382 113.617 121.265C113.73 121.149 113.819 121.011 113.878 120.859C113.937 120.708 113.966 120.546 113.961 120.384C113.81 113.102 112.31 106.018 109.493 99.3297ZM57.0057 64.3516C50.0528 64.3516 43.509 61.6246 38.5859 56.6734C33.6629 51.7223 30.9514 45.141 30.9514 38.1484C30.9514 31.1559 33.6629 24.5746 38.5859 19.6234C43.509 14.6723 50.0528 11.9453 57.0057 11.9453C63.9585 11.9453 70.5024 14.6723 75.4254 19.6234C80.3485 24.5746 83.0599 31.1559 83.0599 38.1484C83.0599 45.141 80.3485 51.7223 75.4254 56.6734C70.5024 61.6246 63.9585 64.3516 57.0057 64.3516Z" fill="white"/>
</svg>
